<svg width="20" height="17" viewBox="0 0 20 17" fill="none" xmlns="http://www.w3.org/2000/svg">
<path d="M15.9844 7.03125H19.9688V9H15.9844V7.03125ZM13.9688 13.6406C14.1875 13.3594 14.3906 13.0938 14.5781 12.8438C14.7969 12.5625 15 12.2812 15.1875 12C15.6562 12.375 16.1719 12.7812 16.7344 13.2188C17.3281 13.6562 17.875 14.0625 18.375 14.4375C18.1875 14.6875 17.9844 14.9531 17.7656 15.2344C17.5781 15.4844 17.3906 15.75 17.2031 16.0312C16.7031 15.6562 16.1562 15.25 15.5625 14.8125C15 14.375 14.4688 13.9844 13.9688 13.6406ZM18.375 1.59375C17.875 1.96875 17.3281 2.375 16.7344 2.8125C16.1719 3.25 15.6562 3.65625 15.1875 4.03125C15 3.75 14.7969 3.48437 14.5781 3.23438C14.3906 2.95312 14.1875 2.6875 13.9688 2.4375C14.4688 2.0625 15 1.65625 15.5625 1.21875C16.1562 0.78125 16.7031 0.375 17.2031 0C17.3906 0.28125 17.5781 0.5625 17.7656 0.84375C17.9844 1.09375 18.1875 1.34375 18.375 1.59375ZM1.96875 5.01562H6L10.9688 2.01562V14.0156L6 11.0156H4.96875V15H3V11.0156H1.96875C1.4375 11.0156 0.96875 10.8281 0.5625 10.4531C0.1875 10.0469 0 9.5625 0 9V7.03125C0 6.46875 0.1875 6 0.5625 5.625C0.96875 5.21875 1.4375 5.01562 1.96875 5.01562ZM13.5 8.01562C13.5 8.67188 13.3594 9.29688 13.0781 9.89062C12.7969 10.4531 12.4375 10.9375 12 11.3438V4.6875C12.4375 5.09375 12.7969 5.59375 13.0781 6.1875C13.3594 6.75 13.5 7.35938 13.5 8.01562Z" fill="#EAB308"/>
</svg>
