<svg width="24" height="24" viewBox="14 12 16 20" fill="none" xmlns="http://www.w3.org/2000/svg">
<path d="M16.1766 31.7227C15.6419 31.7227 15.1841 31.5323 14.8034 31.1515C14.4226 30.7707 14.2322 30.3129 14.2322 29.7782V18.1115C14.2322 17.5768 14.4226 17.1191 14.8034 16.7383C15.1841 16.3575 15.6419 16.1671 16.1766 16.1671H18.1211C18.1211 15.0977 18.5019 14.1821 19.2634 13.4206C20.025 12.659 20.9405 12.2782 22.01 12.2782C23.0794 12.2782 23.9949 12.659 24.7565 13.4206C25.5181 14.1821 25.8988 15.0977 25.8988 16.1671H27.8433C28.378 16.1671 28.8358 16.3575 29.2166 16.7383C29.5973 17.1191 29.7877 17.5768 29.7877 18.1115V29.7782C29.7877 30.3129 29.5973 30.7707 29.2166 31.1515C28.8358 31.5323 28.378 31.7227 27.8433 31.7227H16.1766ZM16.1766 29.7782H27.8433V18.1115H25.8988V20.056C25.8988 20.3315 25.8057 20.5624 25.6193 20.7487C25.433 20.935 25.2021 21.0282 24.9266 21.0282C24.6512 21.0282 24.4203 20.935 24.2339 20.7487C24.0476 20.5624 23.9544 20.3315 23.9544 20.056V18.1115H20.0655V20.056C20.0655 20.3315 19.9723 20.5624 19.786 20.7487C19.5997 20.935 19.3688 21.0282 19.0933 21.0282C18.8178 21.0282 18.5869 20.935 18.4006 20.7487C18.2142 20.5624 18.1211 20.3315 18.1211 20.056V18.1115H16.1766V29.7782ZM20.0655 16.1671H23.9544C23.9544 15.6324 23.764 15.1746 23.3832 14.7938C23.0024 14.413 22.5447 14.2227 22.01 14.2227C21.4752 14.2227 21.0175 14.413 20.6367 14.7938C20.2559 15.1746 20.0655 15.6324 20.0655 16.1671Z" fill="#2B8CEE"/>
</svg>
